# xmcd
#
# Track frame offsets:
#	150
#	19343
#	44633
#	77105
#	118078
#	140788
#	160853
#	189118
#
# Disc length: 2909
#
# Revision: 1
# Processed by: cddbd v1.5.1PL0 Copyright (c) Steve Scherf et al.
# Submitted via: CDex 1.50beta8
# Normalized: r0:TRMNUM
#
DISCID=6b0b5b08
DTITLE=CURTIS FULLER SEXTET - IMAGES+3
DYEAR=1900
DGENRE=Jazz
TTITLE0=Accident
TTITLE1=Darryl's Minor
TTITLE2=Be Back Ta-Reckla
TTITLE3=Judyful
TTITLE4=New Date
TTITLE5=Accident - Take3
TTITLE6=Darryl's Minor - Take2
TTITLE7=New Date - Take1
EXTD=
EXTT0=
EXTT1=
EXTT2=
EXTT3=
EXTT4=
EXTT5=
EXTT6=
EXTT7=
PLAYORDER=
